<svg width="173" height="213" viewBox="0 0 173 213" fill="none" xmlns="http://www.w3.org/2000/svg">
<path d="M0.861824 133.483L93.4028 1.35266C93.7771 0.81825 94.3885 0.5 95.041 0.5H126.771C128.367 0.5 129.32 2.27708 128.437 3.60642L46.563 126.894C45.6801 128.223 46.6333 130 48.229 130H102.5C103.605 130 104.5 129.105 104.5 128V90C104.5 88.8954 105.395 88 106.5 88H136.5C137.605 88 138.5 88.8954 138.5 90V128C138.5 129.105 139.395 130 140.5 130H170.5C171.605 130 172.5 130.895 172.5 132V160.5C172.5 161.605 171.605 162.5 170.5 162.5H140.5C139.395 162.5 138.5 163.395 138.5 164.5V210C138.5 211.105 137.605 212 136.5 212H106.5C105.395 212 104.5 211.105 104.5 210V164.5C104.5 163.395 103.605 162.5 102.5 162.5H2.5C1.39543 162.5 0.5 161.605 0.5 160.5V134.631C0.5 134.22 0.626324 133.82 0.861824 133.483Z" fill="white" stroke="url(#paint0_linear)"/>
<defs>
<linearGradient id="paint0_linear" x1="86.5" y1="0.5" x2="86.5" y2="212" gradientUnits="userSpaceOnUse">
<stop stop-color="#FC7918"/>
<stop offset="1" stop-color="#FC5111"/>
</linearGradient>
</defs>
</svg>
