<svg width="254" height="255" viewBox="0 0 254 255" fill="none" xmlns="http://www.w3.org/2000/svg">
<path d="M3.31597 161.443C16.7211 109.271 67.8256 101.843 101.342 105.413C111.22 106.465 121.619 106.7 130.017 101.394C150.499 88.4514 157.48 67.3891 158.316 56.9427C172.597 -7.15616 208.318 -5.83173 232.624 7.05319C241.88 11.9602 248.361 20.9199 251.059 31.0433C267.123 91.339 203.016 94.1266 179.816 102.943C168.464 107.257 160.978 114.674 156.352 121.684C150.824 130.061 150.746 140.533 150.69 150.57C150.255 228.449 111.453 252.021 84.816 254.443C48.1055 257.78 -15.1839 233.443 3.31597 161.443Z" fill="url(#paint0_linear)"/>
<defs>
<linearGradient id="paint0_linear" x1="232.605" y1="23.4427" x2="17.6055" y2="228.443" gradientUnits="userSpaceOnUse">
<stop offset="0.247743" stop-color="#FC5111"/>
<stop offset="0.697995" stop-color="#FC7818"/>
<stop offset="1" stop-color="#FE921C"/>
</linearGradient>
</defs>
</svg>
